<?xml version="1.0" ?><svg id="social_x5F_viral_x5F_video" style="enable-background:new 0 0 32 32;" version="1.1" viewBox="0 0 32 32" xml:space="preserve" xmlns="http://www.w3.org/2000/svg" xmlns:xlink="http://www.w3.org/1999/xlink"><g><g><g><path d="M29,26H3c-1.654,0-3-1.346-3-3V9c0-1.654,1.346-3,3-3h26c1.654,0,3,1.346,3,3v14     C32,24.654,30.654,26,29,26z M3,8C2.448,8,2,8.448,2,9v14c0,0.552,0.448,1,1,1h26c0.552,0,1-0.448,1-1V9c0-0.552-0.448-1-1-1H3z" style="fill:#FD5C3F;"/></g><g><path d="M14,20c-0.183,0-0.365-0.05-0.525-0.149C13.18,19.668,13,19.347,13,19v-6     c0-0.347,0.18-0.668,0.475-0.851s0.663-0.198,0.973-0.044l6,3C20.786,15.275,21,15.621,21,16s-0.214,0.725-0.553,0.895l-6,3     C14.306,19.965,14.153,20,14,20z M15,14.618v2.764L17.764,16L15,14.618z" style="fill:#FD5C3F;"/></g></g><g><rect height="4" style="fill:#FD5C3F;" width="2" x="1" y="28"/></g><g><rect height="4" style="fill:#FD5C3F;" width="2" x="5" y="28"/></g><g><rect height="4" style="fill:#FD5C3F;" width="2" x="9" y="28"/></g><g><rect height="4" style="fill:#FD5C3F;" width="2" x="13" y="28"/></g><g><rect height="4" style="fill:#FD5C3F;" width="2" x="17" y="28"/></g><g><rect height="4" style="fill:#FD5C3F;" width="2" x="21" y="28"/></g><g><rect height="4" style="fill:#FD5C3F;" width="2" x="25" y="28"/></g><g><rect height="4" style="fill:#FD5C3F;" width="2" x="29" y="28"/></g><g><rect height="4" style="fill:#FD5C3F;" width="2" x="1"/></g><g><rect height="4" style="fill:#FD5C3F;" width="2" x="5"/></g><g><rect height="4" style="fill:#FD5C3F;" width="2" x="9"/></g><g><rect height="4" style="fill:#FD5C3F;" width="2" x="13"/></g><g><rect height="4" style="fill:#FD5C3F;" width="2" x="17"/></g><g><rect height="4" style="fill:#FD5C3F;" width="2" x="21"/></g><g><rect height="4" style="fill:#FD5C3F;" width="2" x="25"/></g><g><rect height="4" style="fill:#FD5C3F;" width="2" x="29"/></g></g></svg>